# xmcd
#
# Track frame offsets:
#	150
#	13012
#	25074
#	38156
#	49837
#	61575
#	73562
#	86254
#	99552
#	114163
#	128805
#	142796
#	158149
#	172008
#	184786
#	197195
#	211199
#	225630
#	241636
#	256933
#
# Disc length: 3631 seconds
#
# Revision: 0
# Processed by: cddbd v1.5.2PL0 Copyright (c) Steve Scherf et al.
# Submitted via: EasyCDDAExtractor 16.0.6.1
#
DISCID=f90e2d14
DTITLE=Συλλογικός δίσκος - Τραγούδια 45 στροφές-Αγγελόπουλος Μανώλης 1
DYEAR=1996
DGENRE=Λαϊκή
TTITLE0=Αγγελόπουλος Μανώλης-Βασιλείου Αννούλα - Είμαι πληγωμένος [1963, Γ. Κό
TTITLE0=ρου]
TTITLE1=Αγγελόπουλος Μανώλης-Βασιλείου Αννούλα - Ποτέ εσύ δεν αγαπάς [1966, Γ.
TTITLE1=Κοινούση]
TTITLE2=Αγγελόπουλος Μανώλης - Όταν θα φύγεις από μένα, πού θα πας [1964, Θ. Σ
TTITLE2=οφού]
TTITLE3=Αγγελόπουλος Μανώλης - Κλείσανε οι πόρτες [1964, Χρ. Κολοκοτρώνη]
TTITLE4=Αγγελόπουλος Μανώλης - Η αγάπη [1966, Θ. Σοφού]
TTITLE5=Αγγελόπουλος Μανώλης-Βασιλείου Αννούλα - Όλα τέλειωσαν χθες [1967, Βασ
TTITLE5=Βασιλειάδη]
TTITLE6=Αγγελόπουλος Μανώλης - Οι περασμένες μου χαρές [1966, Β. Καραπατάκη-Α.
TTITLE6=Αττικού]
TTITLE7=Αγγελόπουλος Μανώλης-Βασιλείου Αννούλα - Με παράπονο στα μάτια [1966, 
TTITLE7=Ν. Καρανικόλα]
TTITLE8=Αγγελόπουλος Μανώλης - Ό,τι αγάπησα σ' αυτή την πλάση [1964, Γ. Λαύκα-
TTITLE8=Σαρ. Τσιλιβερδή]
TTITLE9=Αγγελόπουλος Μανώλης - Πρόσεξε καρδιά μου [1963, Απ. Καλδάρα]
TTITLE10=Αγγελόπουλος Μανώλης-Λαύκας Γιώργος - Έστρωσα το κρεβάτι [1966, Γ. Λα
TTITLE10=ύκα]
TTITLE11=Αγγελόπουλος Μανώλης-Βασιλείου Αννούλα - Σήμερα πήραμε το γράμμα σου 
TTITLE11=παιδί μου [1965, Ν. Δαλέζιου]
TTITLE12=Αγγελόπουλος Μανώλης-Βασιλείου Αννούλα - Πού να βρω το κουράγιο [1966
TTITLE12=, Γ. Κοινούση]
TTITLE13=Αγγελόπουλος Μανώλης-Βασιλείου Αννούλα - Στης καρδιάς μου τον κήπο [1
TTITLE13=966, Μ. Αγγελόπουλου-Μ. Αλεξάκη]
TTITLE14=Αγγελόπουλος Μανώλης - Σ' αναζητούν τα μάτια μου [1967, Ζαχ. Δελμούζο
TTITLE14=υ-Ν. Δαλέζιου]
TTITLE15=Αγγελόπουλος Μανώλης-Λαύκας Γιώργος - Ευχή με λαχτάρα σού δίνω [1963,
TTITLE15=Γ. Λαύκα]
TTITLE16=Αγγελόπουλος Μανώλης-Βασιλείου Αννούλα - Αφού κι εσύ υποφέρεις [1963,
TTITLE16=Ν. Δαλέζιου]
TTITLE17=Αγγελόπουλος Μανώλης-Ζάνου Νίτσα - Συρματοπλέγματα βαρειά [1960, Μπ. 
TTITLE17=Μπακάλη-Ε. Παπαγιαννοπούλου]
TTITLE18=Αγγελόπουλος Μανώλης - Όχι, όχι, όχι [1963, Αν. Βασιλείου-Ν. Δαλέζιου
TTITLE18=]
TTITLE19=Αγγελόπουλος Μανώλης - Το τραγούδι του τσιγγάνου [1962, Γιάννη Καραμπ
TTITLE19=εσίνη]
EXTD=
EXTT0=
EXTT1=
EXTT2=
EXTT3=
EXTT4=
EXTT5=
EXTT6=
EXTT7=
EXTT8=
EXTT9=
EXTT10=
EXTT11=
EXTT12=
EXTT13=
EXTT14=
EXTT15=
EXTT16=
EXTT17=
EXTT18=
EXTT19=
PLAYORDER=
